{"title":"Eric Khoo - Tatsumi (2011)","uid":7330548,"size":1114600136,"categoryP":"video","categoryS":"movies","magnet":"?xt=urn:btih:2e076daa7d00a78cc69eb34ee98f0af9cdc40b93&amp;dn=Eric+Khoo+-+Tatsumi+%282011%29&amp;tr=udp%3A%2F%2Ftracker.openbittorrent.com%3A80&amp;tr=udp%3A%2F%2Fopen.demonii.com%3A1337&amp;tr=udp%3A%2F%2Ftracker.coppersurfer.tk%3A6969&amp;tr=udp%3A%2F%2Fexodus.desync.com%3A6969","seeders":1,"leechers":0,"uploader":null,"files":1,"time":1338902568,"description":"A story based on the life and short stories of Yoshihiro Tatsumi, a mangaka known for his gekiga style of alternate Japanese manga. \n &lt;a href=&quot;\nhttp://en.wikipedia.org/wiki/Tatsumi_%28film%29&quot; rel=&quot;nofollow&quot; target=&quot;_NEW&quot;&gt;\nhttp://en.wikipedia.org/wiki/Tatsumi_%28film%29&lt;/a&gt;\n\nNB: THIS IS HARDSUBBED\n\nGeneral\nComplete name                    : Tatsumi.avi\nFormat                           : AVI\nFormat/Info                      : Audio Video Interleave\nFile size                        : 1.04 GiB\nDuration                         : 1h 32mn\nOverall bit rate                 : 1 611 Kbps\nWriting application              : VirtualDubMod 1.5.10.2 (build 2540/release)\nWriting library                  : VirtualDub build 32661/release\n\nVideo\nID                               : 0\nFormat                           : MPEG-4 Visual\nFormat profile                   : Advanced Simple@L5\nFormat settings, BVOP            : Yes\nFormat settings, QPel            : No\nFormat settings, GMC             : No warppoints\nFormat settings, Matrix          : Default (H.263)\nMuxing mode                      : Packed bitstream\nCodec ID                         : XVID\nCodec ID/Hint                    : XviD\nDuration                         : 1h 32mn\nBit rate                         : 1 409 Kbps\nWidth                            : 640 pixels\nHeight                           : 352 pixels\nDisplay aspect ratio             : 16:9\nFrame rate                       : 25.000 fps\nColor space                      : YUV\nChroma subsampling               : 4:2:0\nBit depth                        : 8 bits\nScan type                        : Progressive\nBits/(Pixel*Frame)               : 0.250\nStream size                      : 930 MiB (87%)\nWriting library                  : XviD 1.2.1 (UTC 2008-12-04)\n\nAudio\nID                               : 1\nFormat                           : MPEG Audio\nFormat version                   : Version 1\nFormat profile                   : Layer 3\nMode                             : Joint stereo\nMode extension                   : MS Stereo\nCodec ID                         : 55\nCodec ID/Hint                    : MP3\nDuration                         : 1h 32mn\nBit rate mode                    : Constant\nBit rate                         : 192 Kbps\nChannel(s)                       : 2 channels\nSampling rate                    : 48.0 KHz\nStream size                      : 127 MiB (12%)\nAlignment                        : Aligned on interleaves\nInterleave, duration             : 40 ms (1.00 video frame)\nInterleave, preload duration     : 504 ms","torrent":{"xt":"urn:btih:2e076daa7d00a78cc69eb34ee98f0af9cdc40b93","amp;dn":"Eric+Khoo+-+Tatsumi+%282011%29","amp;tr":["udp%3A%2F%2Ftracker.openbittorrent.com%3A80","udp%3A%2F%2Fopen.demonii.com%3A1337","udp%3A%2F%2Ftracker.coppersurfer.tk%3A6969","udp%3A%2F%2Fexodus.desync.com%3A6969"],"infoHash":"2e076daa7d00a78cc69eb34ee98f0af9cdc40b93","infoHashBuffer":{"type":"Buffer","data":[46,7,109,170,125,0,167,140,198,158,179,78,233,143,10,249,205,196,11,147]},"announce":[],"urlList":[]}}